<svg xmlns="http://www.w3.org/2000/svg" width="18" height="18" viewBox="0 0 18 18">
  <path id="Path_223" data-name="Path 223" d="M18,11a4.538,4.538,0,0,1-2-.372A4.538,4.538,0,0,1,14,11a4.538,4.538,0,0,1-2-.372A4.538,4.538,0,0,1,10,11a4.538,4.538,0,0,1-2-.372A4.538,4.538,0,0,1,6,11v8H9V14a1,1,0,0,1,1-1h4a1,1,0,0,1,1,1v5h3Zm2-.609V19a1,1,0,0,1,0,2H4a1,1,0,0,1,0-2V10.391a2.9,2.9,0,0,1-1-2.38A1,1,0,0,1,3.2,7.4l.006-.008L6.193,3.409A1,1,0,0,1,7,3H17a1,1,0,0,1,.807.409l2.987,3.983L20.8,7.4a.99.99,0,0,1,.2.611A2.9,2.9,0,0,1,20,10.391ZM18.984,8.312,16.5,5h-9L5.016,8.312C5.078,8.841,5.335,9,6,9a3.008,3.008,0,0,0,1.008-.124,1,1,0,0,1,1.984,0A3.013,3.013,0,0,0,10,9a3.008,3.008,0,0,0,1.008-.124,1,1,0,0,1,1.984,0A3.013,3.013,0,0,0,14,9a3.008,3.008,0,0,0,1.008-.124,1,1,0,0,1,1.984,0A3.013,3.013,0,0,0,18,9C18.665,9,18.922,8.841,18.984,8.312ZM11,19h2V15H11Z" transform="translate(-3 -3)" fill="#f8932d"/>
</svg>
