<svg xmlns="http://www.w3.org/2000/svg" width="41" height="42" viewBox="0 0 41 42">
  <g id="Group_1334" data-name="Group 1334" transform="translate(-400 -231)">
    <g id="Ellipse_3" data-name="Ellipse 3" transform="translate(405 236)" fill="#559d2e" stroke="#fff" stroke-width="5">
      <ellipse cx="15.5" cy="16" rx="15.5" ry="16" stroke="none"/>
      <ellipse cx="15.5" cy="16" rx="18" ry="18.5" fill="none"/>
    </g>
    <g id="Icon_feather-edit" data-name="Icon feather-edit" transform="translate(410 241.182)">
      <path id="Path_10978" data-name="Path 10978" d="M10.075,6h-5.5A1.572,1.572,0,0,0,3,7.572V18.578A1.572,1.572,0,0,0,4.572,20.15H15.578a1.572,1.572,0,0,0,1.572-1.572v-5.5" transform="translate(0 -1.514)" fill="none" stroke="#fff" stroke-linecap="round" stroke-linejoin="round" stroke-width="1.5"/>
      <path id="Path_10979" data-name="Path 10979" d="M20.254,3.306a1.668,1.668,0,0,1,2.358,2.358l-7.468,7.468L12,13.919l.786-3.145Z" transform="translate(-4.283 0)" fill="none" stroke="#fff" stroke-linecap="round" stroke-linejoin="round" stroke-width="1.5"/>
    </g>
  </g>
</svg>
