<svg xmlns="http://www.w3.org/2000/svg" width="42" height="35" viewBox="0 0 42 35">
  <g id="Group_1332" data-name="Group 1332" transform="translate(-277 -126)">
    <g id="Group_1004" data-name="Group 1004" transform="translate(260 1)">
      <path id="Path_10933" data-name="Path 10933" d="M12,0H30A12,12,0,0,1,42,12V23A12,12,0,0,1,30,35H12A12,12,0,0,1,0,23V12A12,12,0,0,1,12,0Z" transform="translate(17 125)" fill="#f8932d"/>
    </g>
    <path id="Path_10959" data-name="Path 10959" d="M19.023,11.546a4.847,4.847,0,0,1-2.136-.4,4.847,4.847,0,0,1-2.136.4,4.847,4.847,0,0,1-2.136-.4,4.847,4.847,0,0,1-2.136.4,4.847,4.847,0,0,1-2.136-.4,4.847,4.847,0,0,1-2.136.4v8.546h3.2V14.75a1.069,1.069,0,0,1,1.068-1.068H14.75a1.069,1.069,0,0,1,1.068,1.068v5.341h3.2Zm2.136-.651v9.2a1.068,1.068,0,0,1,0,2.136H4.068a1.068,1.068,0,1,1,0-2.136V10.9A3.1,3.1,0,0,1,3,8.353,1.071,1.071,0,0,1,3.214,7.7l.006-.009L6.411,3.437A1.068,1.068,0,0,1,7.273,3H17.955a1.068,1.068,0,0,1,.862.437l3.191,4.255.006.009a1.057,1.057,0,0,1,.214.653A3.1,3.1,0,0,1,21.159,10.9ZM20.074,8.674,17.421,5.136H7.807L5.153,8.674c.066.565.341.735,1.051.735a3.213,3.213,0,0,0,1.077-.132,1.068,1.068,0,0,1,2.119,0,3.218,3.218,0,0,0,1.077.132,3.213,3.213,0,0,0,1.077-.132,1.068,1.068,0,0,1,2.119,0,3.218,3.218,0,0,0,1.077.132,3.213,3.213,0,0,0,1.077-.132,1.068,1.068,0,0,1,2.119,0,3.218,3.218,0,0,0,1.077.132C19.733,9.409,20.008,9.239,20.074,8.674ZM11.546,20.091h2.136V15.818H11.546Z" transform="translate(285 131)" fill="#fff"/>
  </g>
</svg>
