<svg xmlns="http://www.w3.org/2000/svg" width="24.241" height="24.241" viewBox="0 0 24.241 24.241">
  <path id="Icon_awesome-arrow-alt-circle-right" data-name="Icon awesome-arrow-alt-circle-right" d="M12.683.563A12.12,12.12,0,1,1,.563,12.683,12.118,12.118,0,0,1,12.683.563ZM7.014,14.833h5.669V18.3a.587.587,0,0,0,1,.415L19.271,13.1a.581.581,0,0,0,0-.826l-5.586-5.62a.586.586,0,0,0-1,.415v3.465H7.014a.588.588,0,0,0-.586.586v3.128A.588.588,0,0,0,7.014,14.833Z" transform="translate(-0.563 -0.563)" fill="#fff"/>
</svg>
