<svg xmlns="http://www.w3.org/2000/svg" width="17.285" height="17.285" viewBox="0 0 17.285 17.285">
  <path id="Icon_metro-cross" data-name="Icon metro-cross" d="M19.7,15.814h0l-5.244-5.244L19.7,5.327h0a.541.541,0,0,0,0-.764L17.221,2.086a.542.542,0,0,0-.764,0h0L11.213,7.33,5.97,2.086h0a.541.541,0,0,0-.764,0L2.729,4.563a.541.541,0,0,0,0,.764h0l5.244,5.244L2.729,15.814h0a.541.541,0,0,0,0,.764l2.477,2.477a.541.541,0,0,0,.764,0h0l5.244-5.244,5.244,5.244h0a.541.541,0,0,0,.764,0L19.7,16.578a.541.541,0,0,0,0-.764Z" transform="translate(-2.571 -1.928)" fill="#f8932d"/>
</svg>
