<svg xmlns="http://www.w3.org/2000/svg" width="24.111" height="31.344" viewBox="0 0 24.111 31.344">
  <path id="Icon_ionic-ios-lock" data-name="Icon ionic-ios-lock" d="M27.847,14.225H26.038V10.706a7.233,7.233,0,1,0-14.466-.1v3.617H9.764A3.023,3.023,0,0,0,6.75,17.239V31.7a3.023,3.023,0,0,0,3.014,3.014H27.847A3.023,3.023,0,0,0,30.861,31.7V17.239A3.023,3.023,0,0,0,27.847,14.225Zm-7.987,9.4v5.184a1.08,1.08,0,0,1-1,1.085,1.056,1.056,0,0,1-1.108-1.055V23.628a2.411,2.411,0,1,1,2.11,0Zm4.069-9.4H13.682V10.608a5.124,5.124,0,0,1,10.247,0Z" transform="translate(-6.75 -3.374)" fill="#8e8e8e"/>
</svg>
