<svg xmlns="http://www.w3.org/2000/svg" width="15.058" height="20.903" viewBox="0 0 15.058 20.903">
  <g id="Group_689" data-name="Group 689" transform="translate(-33.917 -327.488)">
    <g id="noun-vending-machine-4416890" transform="translate(34.417 327.988)">
      <path id="Path_10890" data-name="Path 10890" d="M185.748,65.4H195.81a1.989,1.989,0,0,0,2-2V47.5a1.989,1.989,0,0,0-2-2H185.748a1.989,1.989,0,0,0-2,2V63.406A1.989,1.989,0,0,0,185.748,65.4ZM184.49,47.5a1.247,1.247,0,0,1,1.258-1.258H195.81a1.247,1.247,0,0,1,1.258,1.258V63.406a1.247,1.247,0,0,1-1.258,1.258H185.748a1.247,1.247,0,0,1-1.258-1.258Z" transform="translate(-183.75 -45.5)" fill="#f8932d" stroke="#f8932d" stroke-width="1"/>
      <path id="Path_10894" data-name="Path 10894" d="M253.251,112h-1.725a.379.379,0,0,0-.4.4v1.885a.379.379,0,0,0,.4.4h1.725a.379.379,0,0,0,.4-.4V112.4A.379.379,0,0,0,253.251,112Zm-.4,1.885h-.923V112.8h.923Z" transform="translate(-247.186 -108.436)" fill="#f8932d"/>
      <path id="Path_10895" data-name="Path 10895" d="M319.821,112h-1.781a.391.391,0,0,0-.414.414v1.947a.391.391,0,0,0,.414.414h1.781a.391.391,0,0,0,.414-.414v-1.947A.391.391,0,0,0,319.821,112Zm-.414,1.947h-.953v-1.118h.953Z" transform="translate(-310.32 -108.436)" fill="#f8932d"/>
      <path id="Path_10896" data-name="Path 10896" d="M253.251,199.5h-1.725a.379.379,0,0,0-.4.4v1.885a.379.379,0,0,0,.4.4h1.725a.379.379,0,0,0,.4-.4V199.9A.379.379,0,0,0,253.251,199.5Zm-.4,1.845h-.923v-1.083h.923Z" transform="translate(-247.187 -192.624)" fill="#f8932d"/>
      <path id="Path_10897" data-name="Path 10897" d="M319.751,199.5h-1.725a.379.379,0,0,0-.4.4v1.885a.379.379,0,0,0,.4.4h1.725a.379.379,0,0,0,.4-.4V199.9A.379.379,0,0,0,319.751,199.5Zm-.4,1.845h-.922v-1.083h.922Z" transform="translate(-310.32 -192.624)" fill="#f8932d"/>
      <path id="Path_10900" data-name="Path 10900" d="M.545,7.155c.333,0,.559-.3.565-.736L1.186.724C1.192.286.974,0,.641,0S.082.3.077.737L0,6.431C0,6.8.212,7.158.545,7.155Z" transform="matrix(0.017, 1, -1, 0.017, 10.493, 13.235)" fill="#f8932d"/>
      <path id="Path_10901" data-name="Path 10901" d="M.553,7.154c.338,0,.567-.3.573-.736L1.2.724C1.21.286.989,0,.651,0S.084.3.078.737L0,6.431C0,6.8.272,7.157.553,7.154Z" transform="matrix(0.017, 1, -1, 0.017, 10.493, 15.66)" fill="#f8932d"/>
    </g>
  </g>
</svg>
