<svg xmlns="http://www.w3.org/2000/svg" width="16.263" height="22.609" viewBox="0 0 16.263 22.609">
  <g id="Group_689" data-name="Group 689" transform="translate(0.5 0.5)">
    <g id="noun-vending-machine-4416890" transform="translate(0)">
      <path id="Path_10890" data-name="Path 10890" d="M185.919,67.109h10.925a2.16,2.16,0,0,0,2.169-2.169V47.669a2.16,2.16,0,0,0-2.169-2.169H185.919a2.16,2.16,0,0,0-2.169,2.169V64.94A2.16,2.16,0,0,0,185.919,67.109Zm-1.366-19.44a1.354,1.354,0,0,1,1.366-1.366h10.925a1.354,1.354,0,0,1,1.366,1.366V64.94a1.354,1.354,0,0,1-1.366,1.366H185.919a1.354,1.354,0,0,1-1.366-1.366Z" transform="translate(-183.75 -45.5)" fill="#fff" stroke="#fff" stroke-width="1"/>
      <path id="Path_10894" data-name="Path 10894" d="M253.433,112h-1.872a.411.411,0,0,0-.435.435v2.047a.411.411,0,0,0,.435.435h1.872a.411.411,0,0,0,.436-.435v-2.047A.411.411,0,0,0,253.433,112ZM253,114.047h-1v-1.176h1Z" transform="translate(-246.849 -108.13)" fill="#fff"/>
      <path id="Path_10895" data-name="Path 10895" d="M320.009,112h-1.934a.425.425,0,0,0-.45.45v2.114a.425.425,0,0,0,.45.45h1.934a.425.425,0,0,0,.45-.45V112.45A.425.425,0,0,0,320.009,112Zm-.45,2.114h-1.034V112.9h1.034Z" transform="translate(-309.694 -108.13)" fill="#fff"/>
      <path id="Path_10896" data-name="Path 10896" d="M253.433,199.5h-1.872a.411.411,0,0,0-.435.435v2.047a.411.411,0,0,0,.435.435h1.872a.411.411,0,0,0,.436-.435v-2.047A.411.411,0,0,0,253.433,199.5Zm-.435,2h-1v-1.176h1Z" transform="translate(-246.849 -192.034)" fill="#fff"/>
      <path id="Path_10897" data-name="Path 10897" d="M319.933,199.5h-1.873a.411.411,0,0,0-.436.435v2.047a.411.411,0,0,0,.436.435h1.873a.411.411,0,0,0,.435-.435v-2.047A.411.411,0,0,0,319.933,199.5Zm-.435,2h-1v-1.176h1Z" transform="translate(-309.693 -192.034)" fill="#fff"/>
      <path id="Path_10900" data-name="Path 10900" d="M.592,7.768c.361,0,.607-.324.613-.8L1.288.786C1.294.31,1.058,0,.7,0S.089.324.083.8L0,6.982C-.005,7.379.23,7.772.592,7.768Z" transform="matrix(0.017, 1, -1, 0.017, 11.393, 14.369)" fill="#fff"/>
      <path id="Path_10901" data-name="Path 10901" d="M.6,7.767c.367,0,.616-.324.622-.8L1.308.786C1.314.31,1.074,0,.707,0S.091.324.084.8L0,6.982C-.005,7.378.3,7.771.6,7.767Z" transform="matrix(0.017, 1, -1, 0.017, 11.392, 17.003)" fill="#fff"/>
    </g>
  </g>
</svg>
