<svg id="Group_1268" data-name="Group 1268" xmlns="http://www.w3.org/2000/svg" width="65.463" height="61.768" viewBox="0 0 65.463 61.768">
  <g id="Group_747" data-name="Group 747" transform="translate(0 0)">
    <g id="Group_746" data-name="Group 746">
      <g id="Group_745" data-name="Group 745">
        <path id="Path_10917" data-name="Path 10917" d="M138.5,56.67c-.152.681-.263,1.375-.461,2.042a13.007,13.007,0,0,1-8.628,9.02c-.4.14-.6.27-.67.748-.779,5.36-1.6,10.714-2.4,16.071a5.544,5.544,0,0,1-1.64,3.569,3.975,3.975,0,0,1-2.742,1.013c-10.434-.01-20.869-.034-31.3.017a4.349,4.349,0,0,1-4.4-3.729c-.656-3.982-1.214-7.979-1.816-11.97-.25-1.659-.492-3.32-.78-4.973-.031-.178-.327-.386-.539-.446C78,66.585,74.666,63.324,73.4,58.148A13.03,13.03,0,0,1,83.771,42.385a2.12,2.12,0,0,0,1.925-1.57,18.538,18.538,0,0,1,3.333-5.549,1.31,1.31,0,0,1,1.945-.347,1.282,1.282,0,0,1,.054,1.971A19.418,19.418,0,0,0,87.4,43.639a1.408,1.408,0,0,1-1.466,1.07,10.267,10.267,0,0,0-8.116,4.164A10.5,10.5,0,0,0,84.6,65.642a10.232,10.232,0,0,0,7.1-1.425c1.013-.618,1.349-.6,2.286.142a19.245,19.245,0,0,0,23.612,0c.928-.73,1.292-.76,2.229-.181a10.531,10.531,0,1,0,6.467-19.423c-.233-.017-.467-.052-.7-.057a1.391,1.391,0,0,1-1.424-1.12,19.243,19.243,0,0,0-19.856-13.5A32.931,32.931,0,0,0,99.4,31.094c-.986.242-1.665.049-1.947-.74-.266-.744.128-1.375,1.068-1.712a21.8,21.8,0,0,1,27.685,12.922c.149.4.313.623.776.671a13.135,13.135,0,0,1,11.26,10.335c.075.389.173.774.26,1.161ZM96,86.568c-.114-1.782-.215-3.478-.334-5.174-.279-3.988-.6-7.973-.825-11.963-.054-.974-.2-1.734-1.186-2.12a1.74,1.74,0,0,1-.52-.365c-.289-.27-.535-.228-.9-.079a29.122,29.122,0,0,1-3.282,1.174,21.644,21.644,0,0,1-2.613.4c.027.261.041.511.079.757q.668,4.439,1.341,8.878c.343,2.267.675,4.535,1.03,6.8a1.753,1.753,0,0,0,1.564,1.677c1.847.034,3.695.011,5.643.011m20.435,0h5.038a1.9,1.9,0,0,0,2.216-1.9q.267-1.827.543-3.653.933-6.138,1.866-12.276a1.324,1.324,0,0,0-.04-.347A13.969,13.969,0,0,1,119.541,67a1.211,1.211,0,0,0-1.843,1.043c-.147,1.929-.275,3.86-.406,5.79-.285,4.2-.566,8.4-.859,12.741m-1.392-17.539a2.878,2.878,0,0,0-.4.1,20.829,20.829,0,0,1-6.618,1.742c-.473.04-.512.3-.511.687q.014,7.217.008,14.434c0,.181.032.362.049.544h6.256c.4-5.837.807-11.64,1.213-17.5M104.878,71a23.377,23.377,0,0,1-7.46-1.638l1.189,17.179h6.271Z" transform="translate(-73.039 -27.381)" fill="#f8932d"/>
        <path id="Path_10918" data-name="Path 10918" d="M170.507,61.5a3.657,3.657,0,0,1-3.621,3.68,3.68,3.68,0,0,1,.066-7.358,3.656,3.656,0,0,1,3.555,3.678m-4.562,0a.982.982,0,1,0,1.959,0,1,1,0,0,0-1.015-1.058.983.983,0,0,0-.944,1.059" transform="translate(-124.922 -44.876)" fill="#f8932d"/>
        <path id="Path_10919" data-name="Path 10919" d="M162.307,90.638a3.578,3.578,0,1,1-3.548-3.672,3.646,3.646,0,0,1,3.548,3.672m-2.568.034a1.053,1.053,0,0,0-.949-1.086,1.058,1.058,0,0,0-.12,2.111,1.025,1.025,0,0,0,1.069-1.025" transform="translate(-120.231 -61.625)" fill="#f8932d"/>
        <path id="Path_10920" data-name="Path 10920" d="M120.273,80.487a3.619,3.619,0,0,1-3.577,3.7,3.676,3.676,0,0,1,.009-7.35,3.617,3.617,0,0,1,3.568,3.649m-2.572.034a1,1,0,1,0-1.993-.017,1.027,1.027,0,0,0,1.018,1.078,1.05,1.05,0,0,0,.975-1.061" transform="translate(-96.067 -55.804)" fill="#f8932d"/>
        <path id="Path_10921" data-name="Path 10921" d="M140.373,52.873a3.578,3.578,0,1,1-3.6-3.692,3.631,3.631,0,0,1,3.6,3.692M136.766,51.8a1.029,1.029,0,0,0-.977,1.053,1.011,1.011,0,1,0,2.019,0,1.026,1.026,0,0,0-1.042-1.053" transform="translate(-107.625 -39.91)" fill="#f8932d"/>
        <path id="Path_10922" data-name="Path 10922" d="M121.386,37.946a1.3,1.3,0,0,1-1.308,1.281,1.322,1.322,0,0,1-1.27-1.324,1.307,1.307,0,0,1,1.319-1.272,1.269,1.269,0,0,1,1.258,1.315" transform="translate(-99.343 -32.697)" fill="#f8932d"/>
      </g>
    </g>
  </g>
</svg>
