<svg xmlns="http://www.w3.org/2000/svg" width="77.829" height="47.505" viewBox="0 0 77.829 47.505">
  <path id="Path_10929" data-name="Path 10929" d="M104.663,53.376a12,12,0,0,1-1.84,9.126,22.812,22.812,0,0,1-9.067,7.777,41.762,41.762,0,0,1-9.322,3.455c0,1.021.006,2.051,0,3.081-.007.908-.3,1.21-1.2,1.21q-11.785,0-23.569,0c-.861,0-1.157-.289-1.173-1.163-.019-1.031,0-2.063,0-3-2.176-.753-4.3-1.386-6.348-2.218A26.04,26.04,0,0,1,40.9,63.671,13.051,13.051,0,0,1,38.009,54.9,2.615,2.615,0,0,1,40.15,52.23c-.022-.076-.019-.164-.062-.2A11.832,11.832,0,0,1,36.5,44.594a19.346,19.346,0,0,0-.993-3.641,2.454,2.454,0,0,0-1.324-1.622,1.1,1.1,0,0,1-.373-1.02,1.226,1.226,0,0,1,.979-.622,18.752,18.752,0,0,1,3.313.728c1.489.486,2.933,1.108,4.452,1.694a10.5,10.5,0,0,0,.8-4.51,1.731,1.731,0,0,0-.259-.711c-.266-.44-.288-.916.123-1.172a1.391,1.391,0,0,1,1.168-.137,13.309,13.309,0,0,1,6.23,6.839,1.42,1.42,0,0,0,.5.632c-.4-2.963.258-5.518,2.594-7.417a7.971,7.971,0,0,1,7.753-1.38c.085-.141.164-.268.24-.4a1.682,1.682,0,0,1,2.612-.645c2.546,1.625,5.079,3.27,7.618,4.9.259.167.523.323.788.487,2.072-4.595,4.708-6.463,8.46-6.016A7.343,7.343,0,0,1,87.6,36.8c.35-.257.668-.5.992-.727a6.752,6.752,0,0,1,8.883.278,1,1,0,0,0,1.21.164,7.846,7.846,0,0,1,5.227-.4,17.447,17.447,0,0,1,3.447,1.32c4.252,2.272,5.445,6.8,2.955,10.935a11.763,11.763,0,0,1-5.656,5.014m-2.12,5.229H57.222a5.694,5.694,0,0,1-.851-.021c-.538-.081-.926-.359-.922-.958s.383-.875.928-.949a5.8,5.8,0,0,1,.774-.014h45.707c.575-1.908.15-2.685-1.432-2.685q-29.966-.005-59.931.005a3.176,3.176,0,0,0-1.129.2.792.792,0,0,0-.418.557c-.055.609-.02,1.226-.02,1.923H49.2a5.155,5.155,0,0,1,.62.008c.542.066.936.312.958.916.023.648-.383.917-.954,1a4.2,4.2,0,0,1-.619.013q-3.993,0-7.986,0c-.267,0-.534.025-.861.042a14.254,14.254,0,0,0,4.39,6.377,31.057,31.057,0,0,0,11.756,6.181,51.81,51.81,0,0,0,17.745,2.051,47.368,47.368,0,0,0,15.664-3.293,25.692,25.692,0,0,0,10-6.717,12.236,12.236,0,0,0,2.627-4.642M82.808,49.975c.795.423,1.377.746,1.97,1.047a9.426,9.426,0,0,0,4.6,1.094c3.875-.089,7.754-.019,11.631-.038A8.2,8.2,0,0,0,103,51.86a9.157,9.157,0,0,0,6.4-6,5.163,5.163,0,0,0-2.047-6.2A15.307,15.307,0,0,0,103.634,38a6.351,6.351,0,0,0-4.945.589c-.995.529-1.092.5-1.923-.333a5.209,5.209,0,0,0-4.276-1.8,6.025,6.025,0,0,0-3.543,1.76,2.1,2.1,0,0,1-1.659.593,30.2,30.2,0,0,0-4.706.137,7.051,7.051,0,0,0-6.458,5.857,15,15,0,0,1-2.462,5.868c-.014.018.027.076.031.089a44.259,44.259,0,0,1,4.463-1.48,2.8,2.8,0,0,0,2.294-2.146,7.967,7.967,0,0,1,4.5-5.051c.786-.333,1.33-.187,1.577.4.234.55-.032,1.019-.8,1.339a6.884,6.884,0,0,0-3.647,4.242,3.469,3.469,0,0,0,.594,0c2.628-.521,5.249-1.077,7.883-1.561a1.6,1.6,0,0,0,1.4-1.067,8.6,8.6,0,0,1,5.774-4.722c.647-.131,1.18.135,1.271.675a.908.908,0,0,1-.761,1.147c-.175.042-.353.076-.526.126a6.393,6.393,0,0,0-3.85,3.215,2.324,2.324,0,0,0,.373.026q4.49-.571,8.98-1.148c.757-.1,1.281.2,1.367.79s-.357,1.027-1.117,1.116c-1.9.222-3.8.42-5.69.655-1.124.139-2.243.33-3.5.519a6.514,6.514,0,0,0,4.1,1.834.877.877,0,0,1,.958.98.865.865,0,0,1-.956.9,6.064,6.064,0,0,1-1.457-.146,10.226,10.226,0,0,1-4.587-2.761,1.388,1.388,0,0,0-1-.345c-1.4.2-2.8.464-4.186.74s-2.745.592-4.337.938M51.1,42.993a10.114,10.114,0,0,1-1.465,5.855c-.631,1.05-.34,2.119-.552,3.182h11V42.993ZM63.333,32.839a11.1,11.1,0,0,0-1.177,5.847,16.176,16.176,0,0,0,3.632,9.207,44.249,44.249,0,0,0,3.865,3.885c.213.206.54.6.86.036s.661-1.095,1-1.657c-.21-.137-.427-.273-.64-.418a15.934,15.934,0,0,1-6-6.823,7.528,7.528,0,0,1-.61-4.821,1.52,1.52,0,0,1,2.472-1.032c.966.595,1.909,1.227,2.864,1.841,1.754,1.128,3.509,2.255,5.286,3.4l.844-1.476-12.4-7.986M37.472,40.2c.413,1.987.775,3.952,1.236,5.894a8.444,8.444,0,0,0,4.029,5.534,9.826,9.826,0,0,0,1.94.619c-.692-2.749-1.545-5.059-3.806-6.548a.9.9,0,0,1-.342-1.332.857.857,0,0,1,1.339-.26,11.841,11.841,0,0,1,1.809,1.558,12.765,12.765,0,0,1,2.772,5.878c.045.2.272.36.414.539.119-.164.327-.319.342-.492a8.845,8.845,0,0,0-2.447-7.305A16.706,16.706,0,0,0,37.472,40.2M74,45.292c.358-.738.264-1.174-.423-1.6-2.284-1.4-4.517-2.886-6.771-4.337-.229-.147-.469-.279-.722-.43-.623,3,2.921,7.925,6.711,9.625l.394-.759c-.6-.424-1-.9-.736-1.646A1.331,1.331,0,0,1,74,45.292M60.418,76.123H82.5V74.164a57.13,57.13,0,0,1-22.078,0ZM76.293,38.91c.046-.114.083-.159.079-.2a3.961,3.961,0,0,1,2.809-4.07c1.762-.535,3.335.116,4.588,1.844a.752.752,0,0,0,.463.3c.448.041.9.014,1.443.014-.15-.474-.229-.826-.369-1.152a5.517,5.517,0,0,0-5.747-3.168,5.9,5.9,0,0,0-4.981,4.992.57.57,0,0,0,.17.442c.5.352,1.02.665,1.546,1M48.519,46.685a8.089,8.089,0,0,0-3.082-10.011c-.385,1.439-.785,2.894-1.15,4.358a.63.63,0,0,0,.233.5,11.99,11.99,0,0,1,4,5.151m5.843-5.754a4.666,4.666,0,0,1,1.393-4.507,4.887,4.887,0,0,1,4.719-1.048l.316-1.518a26.436,26.436,0,0,0-2.933-.034A5.428,5.428,0,0,0,53.041,40.2c.205.93.229.945,1.32.735m6.095.1c-.074-1.126-.17-2.121-.192-3.118a.653.653,0,0,0-.584-.736,2.771,2.771,0,0,0-3.416,3.4.7.7,0,0,0,.5.431c1.231.038,2.463.02,3.689.02m6.208,11.016L62.13,46.063v5.984Zm15.847.008c-.657-.464-1.175-.834-1.7-1.2-.143-.1-.333-.277-.452-.244-1.418.4-2.827.839-4.237,1.266l.045.174ZM81.8,37.032a2.011,2.011,0,0,0-2.3-.469,1.879,1.879,0,0,0-1.214,1.823L81.8,37.032" transform="translate(-33.777 -30.522)" fill="#f8932d"/>
</svg>
