<svg xmlns="http://www.w3.org/2000/svg" width="42" height="35" viewBox="0 0 42 35">
  <g id="Group_1307" data-name="Group 1307" transform="translate(-279 -368)">
    <g id="Group_1306" data-name="Group 1306" transform="translate(262 243)">
      <path id="Path_10933" data-name="Path 10933" d="M12,0H30A12,12,0,0,1,42,12V23A12,12,0,0,1,30,35H12A12,12,0,0,1,0,23V12A12,12,0,0,1,12,0Z" transform="translate(17 125)" fill="#f8932d"/>
    </g>
    <path id="Path_10983" data-name="Path 10983" d="M90.944-518.495a1.869,1.869,0,0,1,1.869,1.869v6.54a1.869,1.869,0,0,1-1.869,1.869H90.01v7.475a.934.934,0,0,1-.934.934h-.934a.934.934,0,0,1-.934-.934v-7.475h-.934a1.869,1.869,0,0,1-1.869-1.869v-6.54a1.869,1.869,0,0,1,1.869-1.869h4.672m0,8.409v-6.54H90.01v4.2a.467.467,0,0,1-.467.467.467.467,0,0,1-.467-.467v-4.2h-.934v4.2a.467.467,0,0,1-.467.467.467.467,0,0,1-.467-.467v-4.2h-.934v6.54h4.672m7.9-8.409a.514.514,0,0,1,.514.514v17.239a.934.934,0,0,1-.934.934h-.934a.934.934,0,0,1-.934-.934v-3.737h-.934a1.869,1.869,0,0,1-1.869-1.869V-513.4a5.092,5.092,0,0,1,5.092-5.092m-3.223,12.146h1.869v-9.979a3.233,3.233,0,0,0-1.869,2.924v7.054" transform="translate(208.596 894.495)" fill="#fff"/>
  </g>
</svg>
