<svg xmlns="http://www.w3.org/2000/svg" width="42" height="35" viewBox="0 0 42 35">
  <g id="Group_1331" data-name="Group 1331" transform="translate(-279 -126)">
    <g id="Group_1004" data-name="Group 1004" transform="translate(262 1)">
      <path id="Path_10933" data-name="Path 10933" d="M12,0H30A12,12,0,0,1,42,12V23A12,12,0,0,1,30,35H12A12,12,0,0,1,0,23V12A12,12,0,0,1,12,0Z" transform="translate(17 125)" fill="#f8932d"/>
    </g>
    <path id="Icon_metro-user-plus" data-name="Icon metro-user-plus" d="M12.236,20.453a8.875,8.875,0,0,1,5.79-8.311,7.355,7.355,0,0,0,.654-2.965c0-4,0-7.249-4.833-7.249S9.014,5.174,9.014,9.177a7.2,7.2,0,0,0,3.222,5.986v1.328c-5.465.447-9.665,3.132-9.665,6.378h10a8.839,8.839,0,0,1-.335-2.416ZM21.1,13.2a7.249,7.249,0,1,0,7.249,7.249A7.249,7.249,0,0,0,21.1,13.2Zm4.027,8.054H21.9v3.222H20.291V21.259H17.069V19.648h3.222V16.426H21.9v3.222h3.222v1.611Z" transform="translate(284.43 129.072)" fill="#fff"/>
  </g>
</svg>
