<svg xmlns="http://www.w3.org/2000/svg" width="20.226" height="20.226" viewBox="0 0 20.226 20.226">
  <path id="Icon_ionic-md-settings" data-name="Icon ionic-md-settings" d="M21.168,14.5a6.324,6.324,0,0,0,.052-1.011c0-.354-.052-.657-.052-1.011l2.172-1.669a.464.464,0,0,0,.1-.657L21.375,6.662a.5.5,0,0,0-.621-.2L18.168,7.471A7.527,7.527,0,0,0,16.41,6.459l-.362-2.68a.554.554,0,0,0-.517-.4H11.393a.554.554,0,0,0-.517.4l-.414,2.68A8.758,8.758,0,0,0,8.7,7.471L6.118,6.459a.484.484,0,0,0-.621.2L3.428,10.151a.611.611,0,0,0,.1.657l2.224,1.668c0,.354-.052.657-.052,1.011s.052.657.052,1.011L3.584,16.168a.464.464,0,0,0-.1.657l2.069,3.489a.5.5,0,0,0,.621.2l2.586-1.011a7.526,7.526,0,0,0,1.758,1.011l.414,2.68a.5.5,0,0,0,.517.4h4.137a.554.554,0,0,0,.517-.4l.414-2.68a8.753,8.753,0,0,0,1.758-1.011l2.586,1.011a.484.484,0,0,0,.621-.2l2.069-3.489a.61.61,0,0,0-.1-.657Zm-7.706,2.528a3.54,3.54,0,1,1,3.62-3.54A3.558,3.558,0,0,1,13.462,17.027Z" transform="translate(-3.375 -3.375)" fill="#707070"/>
</svg>
